<svg x="0px" y="0px" viewBox="0 0 20 20" fill="#ffffff" xmlns="http://www.w3.org/2000/svg">
<g>
	<path d="M4.2,6C3.7,6,3.4,6.4,3.4,6.8c0,0.5,0.4,0.8,0.8,0.8C4.7,7.6,5,7.2,5,6.8C5,6.3,4.7,6,4.2,6z"/>
	<path d="M11,6c-0.4,0-0.8,0.4-0.8,0.8c0,0.5,0.4,0.8,0.8,0.8c0.5,0,0.8-0.4,0.8-0.8C11.9,6.3,11.5,6,11,6z"/>
	<path d="M15.6,6c-0.5,0-0.8,0.4-0.8,0.8c0,0.5,0.4,0.8,0.8,0.8c0.5,0,0.8-0.4,0.8-0.8C16.4,6.3,16,6,15.6,6z"/>
	<path d="M17.6,0H2.2C1,0,0,0.9,0,2.1v8.8c0,1.2,1,2.2,2.2,2.2h6.1c0.6,1.6,1.2,3.3,1.7,3.3s1.1-1.6,1.7-3.3h6.1
		c1.2,0,2.2-1,2.2-2.2V2.1C19.8,0.9,18.8,0,17.6,0z M5.8,8C5.3,8.6,4.2,8.8,3.4,8.3c0,0.1,0,0.2,0,0.2c-0.4,0-0.8,0-1.1,0
		c0-1.7,0-3.4,0-5c0.4,0,0.7,0,1.1,0c0,0.6,0,1.3,0,1.9C3.9,5,4.4,5,4.9,5c0.4,0.1,0.7,0.3,0.9,0.6C6.3,6.2,6.3,7.3,5.8,8z M8.2,8.4
		C8.2,8.5,8.2,8.5,8.2,8.4C7.8,8.5,7.4,8.5,7,8.5c0-0.1,0-0.1,0-0.2c0-1,0-1.9,0-2.9C7,5,6.9,4.8,6.4,4.6c0-0.4,0-0.8,0-1.2
		c0.4,0,0.7,0.2,1,0.5C8,4.2,8.2,4.7,8.2,5.2C8.2,6.3,8.2,7.4,8.2,8.4z M12.1,8.4c-0.3,0.2-0.7,0.3-1.1,0.3c-0.8,0-1.4-0.3-1.8-1
		C8.8,6.9,9,5.9,9.8,5.3c0.9-0.7,2.2-0.5,2.9,0.4S13.1,7.8,12.1,8.4z M17.5,8.4c0,0.3-0.1,0.7-0.2,1c-0.2,0.5-0.6,0.8-1.2,0.8
		c-0.3,0-0.6,0-0.9,0c0-0.3,0-0.6,0-0.9c0.4,0,0.8-0.1,1-0.5c0.1-0.2,0.1-0.4,0.1-0.7c-0.5,0.7-1.7,0.6-2.2,0.1
		c-0.3-0.1-0.4-0.4-0.5-0.8c-0.1-0.5-0.1-0.9,0.1-1.4c0.3-0.9,1-1.2,1.9-1.1C15.7,5,15.9,5,16,5c0.1,0.1,0.2,0.1,0.4,0.2
		c0-0.1,0-0.2,0-0.3c0.2,0,0.4,0,0.6,0s0.4,0,0.6,0V5C17.5,6.2,17.5,7.3,17.5,8.4z"/>
</g>
</svg>
